<svg width="150" height="151" viewBox="0 0 150 151" fill="none" xmlns="http://www.w3.org/2000/svg">
<rect y="0.932373" width="150" height="150" fill="url(#paint0_linear_602_235)"/>
<g filter="url(#filter0_d_602_235)">
<path d="M72.2964 97.7322C79.4909 99.689 86.9095 95.443 88.8663 88.2486C90.8231 81.0541 86.5772 73.6355 79.3827 71.6787M51.3956 107.754V69.9894L65.5377 84.1316L79.0551 71.6787M92.2049 42.3229H49.0071M62.7226 52.504H51.3956M82.1426 59.9143L92.1426 42.5938M71.139 108.691C84.4621 112.315 96.4866 103.998 100.11 90.6749C103.734 77.3518 95.8712 63.6137 82.5481 59.9899M65.2209 62.0415C70.1608 59.2143 76.1145 58.2931 82.3529 59.9899" stroke="white" stroke-width="6" stroke-linecap="round"/>
</g>
<defs>
<filter id="filter0_d_602_235" x="39.0071" y="38.3229" width="67.9866" height="83.2262" filterUnits="userSpaceOnUse" color-interpolation-filters="sRGB">
<feFlood flood-opacity="0" result="BackgroundImageFix"/>
<feColorMatrix in="SourceAlpha" type="matrix" values="0 0 0 0 0 0 0 0 0 0 0 0 0 0 0 0 0 0 127 0" result="hardAlpha"/>
<feOffset dx="-2" dy="4"/>
<feGaussianBlur stdDeviation="2.5"/>
<feComposite in2="hardAlpha" operator="out"/>
<feColorMatrix type="matrix" values="0 0 0 0 0 0 0 0 0 0 0 0 0 0 0 0 0 0 0.27 0"/>
<feBlend mode="normal" in2="BackgroundImageFix" result="effect1_dropShadow_602_235"/>
<feBlend mode="normal" in="SourceGraphic" in2="effect1_dropShadow_602_235" result="shape"/>
</filter>
<linearGradient id="paint0_linear_602_235" x1="150" y1="150.932" x2="0" y2="0.932373" gradientUnits="userSpaceOnUse">
<stop stop-color="#FD6E6A"/>
<stop offset="0.231441" stop-color="#44107A" stop-opacity="0.95"/>
<stop offset="0.620608" stop-color="#FF1361"/>
<stop offset="1" stop-color="#FFF800"/>
</linearGradient>
</defs>
</svg>
